<svg xmlns="http://www.w3.org/2000/svg" xmlns:xlink="http://www.w3.org/1999/xlink" width="500" zoomAndPan="magnify" viewBox="0 0 375 374.999991" height="500" preserveAspectRatio="xMidYMid meet" version="1.0"><defs><clipPath id="ef926a1a03"><path d="M 66 0 L 309 0 C 345.449219 0 375 29.550781 375 66 L 375 309 C 375 345.449219 345.449219 375 309 375 L 66 375 C 29.550781 375 0 345.449219 0 309 L 0 66 C 0 29.550781 29.550781 0 66 0 Z M 66 0 " clip-rule="nonzero"/></clipPath><clipPath id="528a2ae705"><path d="M 156.527344 134.203125 L 337 134.203125 L 337 314.605469 L 156.527344 314.605469 Z M 156.527344 134.203125 " clip-rule="nonzero"/></clipPath><clipPath id="56e72c08bc"><path d="M 206.101562 103.492188 L 367.621094 183.738281 L 287.371094 345.257812 L 125.851562 265.007812 Z M 206.101562 103.492188 " clip-rule="nonzero"/></clipPath><clipPath id="b63dbb6d7c"><path d="M 206.101562 103.492188 L 367.621094 183.738281 L 287.371094 345.257812 L 125.851562 265.007812 Z M 206.101562 103.492188 " clip-rule="nonzero"/></clipPath><clipPath id="122a9d5a95"><path d="M 206.101562 103.492188 L 367.621094 183.738281 L 287.371094 345.257812 L 125.851562 265.007812 Z M 206.101562 103.492188 " clip-rule="nonzero"/></clipPath><clipPath id="639e4c8b55"><path d="M 116.699219 98.726562 L 344.214844 98.726562 L 344.214844 326.144531 L 116.699219 326.144531 Z M 116.699219 98.726562 " clip-rule="nonzero"/></clipPath><clipPath id="e111c53e8d"><path d="M 179.207031 60.070312 L 382.855469 161.246094 L 281.675781 364.894531 L 78.03125 263.71875 Z M 179.207031 60.070312 " clip-rule="nonzero"/></clipPath><clipPath id="97315eba09"><path d="M 179.207031 60.070312 L 382.855469 161.246094 L 281.675781 364.894531 L 78.03125 263.71875 Z M 179.207031 60.070312 " clip-rule="nonzero"/></clipPath><clipPath id="ed87e50d54"><path d="M 179.207031 60.070312 L 382.855469 161.246094 L 281.675781 364.894531 L 78.03125 263.71875 Z M 179.207031 60.070312 " clip-rule="nonzero"/></clipPath><clipPath id="2b535b315b"><path d="M 81.132812 71.292969 L 350.742188 71.292969 L 350.742188 340.808594 L 81.132812 340.808594 Z M 81.132812 71.292969 " clip-rule="nonzero"/></clipPath><clipPath id="00b2cbd672"><path d="M 155.140625 25.398438 L 396.53125 145.324219 L 276.601562 386.714844 L 35.214844 266.785156 Z M 155.140625 25.398438 " clip-rule="nonzero"/></clipPath><clipPath id="568b958af0"><path d="M 155.140625 25.398438 L 396.53125 145.324219 L 276.601562 386.714844 L 35.214844 266.785156 Z M 155.140625 25.398438 " clip-rule="nonzero"/></clipPath><clipPath id="fef96d6893"><path d="M 155.140625 25.398438 L 396.53125 145.324219 L 276.601562 386.714844 L 35.214844 266.785156 Z M 155.140625 25.398438 " clip-rule="nonzero"/></clipPath><clipPath id="7ae367c74d"><path d="M 14.058594 10.285156 L 360.769531 10.285156 L 360.769531 363.132812 L 14.058594 363.132812 Z M 14.058594 10.285156 " clip-rule="nonzero"/></clipPath><clipPath id="6be0af3e67"><path d="M 225.480469 187.933594 L 324.820312 187.933594 L 324.820312 318.835938 L 225.480469 318.835938 Z M 225.480469 187.933594 " clip-rule="nonzero"/></clipPath><clipPath id="daf9bfff05"><path d="M 214.507812 187.863281 L 236.457031 187.863281 L 236.457031 209.808594 L 214.507812 209.808594 Z M 214.507812 187.863281 " clip-rule="nonzero"/></clipPath><clipPath id="b6a3fc8fd1"><path d="M 225.480469 187.863281 C 219.421875 187.863281 214.507812 192.777344 214.507812 198.835938 C 214.507812 204.898438 219.421875 209.808594 225.480469 209.808594 C 231.542969 209.808594 236.457031 204.898438 236.457031 198.835938 C 236.457031 192.777344 231.542969 187.863281 225.480469 187.863281 Z M 225.480469 187.863281 " clip-rule="nonzero"/></clipPath><clipPath id="17f61ec1ac"><path d="M 214.507812 234.824219 L 236.457031 234.824219 L 236.457031 256.769531 L 214.507812 256.769531 Z M 214.507812 234.824219 " clip-rule="nonzero"/></clipPath><clipPath id="eaa5fe6ab8"><path d="M 225.480469 234.824219 C 219.421875 234.824219 214.507812 239.738281 214.507812 245.796875 C 214.507812 251.859375 219.421875 256.769531 225.480469 256.769531 C 231.542969 256.769531 236.457031 251.859375 236.457031 245.796875 C 236.457031 239.738281 231.542969 234.824219 225.480469 234.824219 Z M 225.480469 234.824219 " clip-rule="nonzero"/></clipPath></defs><g clip-path="url(#ef926a1a03)"><rect x="-37.5" width="450" fill="#ffffff" y="-37.499999" height="449.999989" fill-opacity="1"/></g><g clip-path="url(#528a2ae705)"><g clip-path="url(#56e72c08bc)"><g clip-path="url(#b63dbb6d7c)"><g clip-path="url(#122a9d5a95)"><path fill="#000000" d="M 206.613281 305.132812 C 161.996094 282.964844 143.933594 228.617188 165.976562 184.25 C 188.019531 139.882812 242.242188 121.445312 286.859375 143.613281 C 331.476562 165.78125 349.664062 219.878906 327.496094 264.496094 C 305.328125 309.113281 250.980469 327.175781 206.613281 305.132812 Z M 284.382812 148.597656 C 242.507812 127.792969 191.765625 144.851562 170.960938 186.726562 C 150.15625 228.601562 167.214844 279.34375 209.089844 300.148438 C 250.964844 320.953125 301.707031 303.894531 322.511719 262.019531 C 343.316406 220.144531 326.007812 169.28125 284.382812 148.597656 Z M 284.382812 148.597656 " fill-opacity="1" fill-rule="nonzero"/></g></g></g></g><g clip-path="url(#639e4c8b55)"><g clip-path="url(#e111c53e8d)"><g clip-path="url(#97315eba09)"><g clip-path="url(#ed87e50d54)"><path fill="#000000" d="M 179.855469 314.304688 C 123.601562 286.355469 100.828125 217.832031 128.621094 161.894531 C 156.410156 105.953125 224.777344 82.710938 281.03125 110.660156 C 337.285156 138.609375 360.214844 206.816406 332.265625 263.070312 C 304.316406 319.324219 235.792969 342.097656 179.855469 314.304688 Z M 277.90625 116.945312 C 225.109375 90.714844 161.136719 112.21875 134.90625 165.015625 C 108.675781 217.8125 130.179688 281.789062 182.976562 308.019531 C 235.773438 334.25 299.75 312.746094 325.980469 259.949219 C 352.210938 207.148438 330.390625 143.019531 277.90625 116.945312 Z M 277.90625 116.945312 " fill-opacity="1" fill-rule="nonzero"/></g></g></g></g><g clip-path="url(#2b535b315b)"><g clip-path="url(#00b2cbd672)"><g clip-path="url(#568b958af0)"><g clip-path="url(#fef96d6893)"><path fill="#000000" d="M 155.90625 326.75 C 89.226562 293.621094 62.234375 212.398438 95.175781 146.089844 C 128.121094 79.785156 209.15625 52.234375 275.835938 85.359375 C 342.515625 118.488281 369.695312 199.339844 336.566406 266.019531 C 303.4375 332.699219 222.214844 359.691406 155.90625 326.75 Z M 272.132812 92.8125 C 209.550781 61.71875 133.71875 87.210938 102.628906 149.792969 C 71.535156 212.375 97.027344 288.207031 159.609375 319.300781 C 222.191406 350.390625 298.023438 324.898438 329.117188 262.316406 C 360.207031 199.734375 334.34375 123.71875 272.132812 92.8125 Z M 272.132812 92.8125 " fill-opacity="1" fill-rule="nonzero"/></g></g></g></g><g clip-path="url(#7ae367c74d)"><path fill="#000000" d="M 184.328125 10.199219 C 193.136719 10.355469 201.898438 11.09375 210.605469 12.425781 C 219.300781 13.832031 227.851562 15.84375 236.257812 18.46875 C 244.636719 21.125 252.78125 24.371094 260.6875 28.207031 C 268.570312 32.074219 276.140625 36.476562 283.398438 41.410156 C 285.199219 42.640625 286.972656 43.902344 288.726562 45.199219 C 290.480469 46.496094 292.207031 47.820312 293.910156 49.179688 C 295.613281 50.539062 297.292969 51.929688 298.945312 53.351562 C 300.597656 54.769531 302.226562 56.21875 303.824219 57.699219 C 305.425781 59.179688 306.996094 60.691406 308.542969 62.226562 C 310.085938 63.765625 311.601562 65.332031 313.089844 66.921875 C 314.574219 68.515625 316.035156 70.136719 317.460938 71.78125 C 318.890625 73.429688 320.285156 75.101562 321.652344 76.800781 C 323.019531 78.496094 324.355469 80.21875 325.65625 81.964844 C 326.960938 83.714844 328.230469 85.484375 329.46875 87.277344 C 330.707031 89.070312 331.914062 90.886719 333.085938 92.722656 C 334.257812 94.558594 335.394531 96.417969 336.5 98.296875 C 337.601562 100.175781 338.671875 102.074219 339.707031 103.992188 C 340.742188 105.910156 341.738281 107.847656 342.703125 109.804688 C 343.667969 111.757812 344.59375 113.730469 345.484375 115.71875 C 346.375 117.707031 347.230469 119.710938 348.046875 121.730469 C 349.253906 124.726562 350.375 127.753906 351.410156 130.8125 C 352.449219 133.871094 353.402344 136.957031 354.269531 140.066406 C 355.140625 143.175781 355.921875 146.308594 356.617188 149.460938 C 357.3125 152.613281 357.921875 155.785156 358.441406 158.972656 C 358.964844 162.160156 359.398438 165.359375 359.742188 168.570312 C 360.085938 171.78125 360.34375 174.996094 360.511719 178.222656 C 360.679688 181.449219 360.757812 184.675781 360.75 187.902344 C 360.738281 191.132812 360.640625 194.359375 360.453125 197.582031 C 360.265625 200.808594 359.988281 204.023438 359.625 207.230469 C 359.261719 210.441406 358.808594 213.636719 358.265625 216.820312 C 357.726562 220.003906 357.097656 223.171875 356.382812 226.320312 C 355.667969 229.46875 354.867188 232.597656 353.980469 235.703125 C 353.09375 238.808594 352.121094 241.886719 351.0625 244.9375 C 350.007812 247.988281 348.867188 251.007812 347.644531 253.996094 C 346.421875 256.984375 345.117188 259.9375 343.730469 262.855469 C 342.347656 265.773438 340.882812 268.648438 339.335938 271.484375 C 337.792969 274.320312 336.171875 277.113281 334.472656 279.859375 C 332.777344 282.609375 331.003906 285.304688 329.160156 287.957031 C 327.3125 290.605469 325.394531 293.203125 323.40625 295.746094 C 321.414062 298.289062 319.359375 300.777344 317.230469 303.207031 C 315.105469 305.636719 312.914062 308.007812 310.65625 310.320312 C 308.398438 312.628906 306.082031 314.875 303.699219 317.058594 C 301.320312 319.238281 298.882812 321.355469 296.382812 323.402344 C 293.886719 325.449219 291.335938 327.429688 288.730469 329.335938 C 286.125 331.242188 283.46875 333.078125 280.761719 334.839844 C 278.054688 336.601562 275.300781 338.285156 272.5 339.894531 C 269.703125 341.503906 266.859375 343.035156 263.976562 344.488281 C 261.089844 345.945312 258.167969 347.316406 255.210938 348.609375 C 252.25 349.902344 249.257812 351.109375 246.230469 352.238281 C 243.203125 353.367188 240.148438 354.410156 237.066406 355.367188 C 233.980469 356.328125 230.875 357.203125 227.742188 357.988281 C 224.609375 358.777344 221.460938 359.480469 218.289062 360.09375 C 216.203125 360.488281 214.109375 360.847656 212.007812 361.164062 C 209.910156 361.480469 207.804688 361.761719 205.691406 362 C 203.582031 362.238281 201.46875 362.441406 199.351562 362.601562 C 197.234375 362.761719 195.113281 362.882812 192.992188 362.964844 C 190.871094 363.046875 188.746094 363.089844 186.621094 363.09375 C 184.5 363.09375 182.375 363.058594 180.253906 362.984375 C 178.128906 362.90625 176.011719 362.792969 173.890625 362.636719 C 171.773438 362.480469 169.660156 362.289062 167.546875 362.054688 C 165.4375 361.820312 163.332031 361.546875 161.230469 361.234375 C 159.128906 360.925781 157.035156 360.574219 154.949219 360.183594 C 152.859375 359.792969 150.78125 359.367188 148.707031 358.898438 C 146.636719 358.433594 144.574219 357.925781 142.519531 357.382812 C 140.46875 356.839844 138.425781 356.257812 136.394531 355.636719 C 134.363281 355.019531 132.34375 354.359375 130.335938 353.667969 C 128.328125 352.972656 126.335938 352.238281 124.355469 351.472656 C 122.375 350.703125 120.410156 349.898438 118.460938 349.054688 C 116.527344 348.21875 114.605469 347.34375 112.703125 346.4375 C 110.800781 345.53125 108.914062 344.589844 107.042969 343.613281 C 105.175781 342.636719 103.324219 341.628906 101.492188 340.585938 C 99.660156 339.542969 97.84375 338.46875 96.050781 337.359375 C 94.257812 336.25 92.484375 335.109375 90.734375 333.933594 C 88.984375 332.761719 87.253906 331.554688 85.542969 330.320312 C 83.835938 329.082031 82.152344 327.816406 80.488281 326.519531 C 78.828125 325.222656 77.191406 323.894531 75.574219 322.535156 C 73.960938 321.179688 72.375 319.792969 70.808594 318.378906 C 69.246094 316.964844 67.710938 315.519531 66.199219 314.050781 C 64.6875 312.578125 63.203125 311.082031 61.75 309.554688 C 60.292969 308.03125 58.863281 306.480469 57.464844 304.902344 C 56.066406 303.328125 54.695312 301.726562 53.351562 300.097656 C 52.011719 298.472656 50.699219 296.820312 49.417969 295.148438 C 48.136719 293.472656 46.886719 291.773438 45.664062 290.054688 C 44.445312 288.335938 43.257812 286.59375 42.101562 284.832031 C 40.949219 283.082031 39.828125 281.3125 38.742188 279.519531 C 37.65625 277.730469 36.605469 275.921875 35.585938 274.089844 C 34.566406 272.261719 33.578125 270.414062 32.628906 268.546875 C 31.679688 266.679688 30.761719 264.796875 29.878906 262.898438 C 29 260.996094 28.152344 259.082031 27.34375 257.148438 C 26.53125 255.21875 25.757812 253.273438 25.019531 251.3125 C 24.28125 249.351562 23.582031 247.378906 22.914062 245.394531 C 22.25 243.40625 21.621094 241.410156 21.03125 239.398438 C 20.441406 237.390625 19.886719 235.371094 19.371094 233.339844 C 18.855469 231.3125 18.375 229.273438 17.933594 227.222656 C 17.492188 225.175781 17.089844 223.121094 16.726562 221.058594 C 16.359375 218.996094 16.035156 216.929688 15.746094 214.855469 C 15.457031 212.777344 15.207031 210.699219 14.996094 208.617188 C 14.785156 206.53125 14.613281 204.445312 14.480469 202.355469 C 14.347656 200.265625 14.25 198.171875 14.195312 196.078125 C 14.140625 193.984375 14.121094 191.890625 14.144531 189.796875 C 14.167969 191.875 14.234375 193.953125 14.335938 196.03125 C 14.441406 198.109375 14.582031 200.183594 14.761719 202.257812 C 14.945312 204.328125 15.164062 206.394531 15.417969 208.460938 C 15.675781 210.523438 15.972656 212.582031 16.304688 214.636719 C 16.636719 216.6875 17.007812 218.734375 17.417969 220.773438 C 17.824219 222.8125 18.273438 224.84375 18.757812 226.867188 C 19.242188 228.890625 19.761719 230.902344 20.320312 232.90625 C 20.878906 234.910156 21.476562 236.902344 22.105469 238.882812 C 22.738281 240.863281 23.410156 242.832031 24.113281 244.789062 C 24.820312 246.746094 25.558594 248.691406 26.335938 250.621094 C 27.113281 252.546875 27.929688 254.460938 28.777344 256.363281 C 29.625 258.261719 30.507812 260.144531 31.425781 262.011719 C 32.34375 263.875 33.292969 265.726562 34.28125 267.554688 C 35.265625 269.386719 36.289062 271.199219 37.339844 272.992188 C 38.394531 274.785156 39.480469 276.558594 40.601562 278.3125 C 41.71875 280.066406 42.871094 281.796875 44.054688 283.507812 C 45.226562 285.207031 46.429688 286.886719 47.664062 288.542969 C 48.898438 290.199219 50.160156 291.832031 51.453125 293.445312 C 52.746094 295.054688 54.070312 296.640625 55.417969 298.203125 C 56.769531 299.765625 58.148438 301.304688 59.554688 302.816406 C 60.960938 304.328125 62.394531 305.816406 63.855469 307.277344 C 65.316406 308.734375 66.804688 310.167969 68.316406 311.578125 C 69.828125 312.984375 71.363281 314.363281 72.929688 315.710938 C 74.488281 317.0625 76.078125 318.386719 77.6875 319.679688 C 79.296875 320.972656 80.929688 322.234375 82.585938 323.46875 C 84.242188 324.703125 85.921875 325.90625 87.621094 327.078125 C 89.320312 328.253906 91.042969 329.394531 92.785156 330.503906 C 94.527344 331.617188 96.285156 332.695312 98.066406 333.742188 C 99.847656 334.789062 101.648438 335.800781 103.464844 336.785156 C 105.28125 337.765625 107.117188 338.714844 108.96875 339.628906 C 110.820312 340.542969 112.6875 341.425781 114.570312 342.273438 C 116.453125 343.117188 118.351562 343.933594 120.265625 344.710938 C 123.101562 345.84375 125.964844 346.902344 128.859375 347.878906 C 131.75 348.855469 134.667969 349.753906 137.609375 350.570312 C 140.554688 351.386719 143.515625 352.121094 146.5 352.777344 C 149.480469 353.429688 152.480469 354 155.496094 354.488281 C 158.507812 354.976562 161.535156 355.382812 164.570312 355.703125 C 167.609375 356.027344 170.652344 356.261719 173.699219 356.417969 C 176.75 356.570312 179.800781 356.640625 182.855469 356.628906 C 185.910156 356.613281 188.960938 356.515625 192.007812 356.332031 C 195.054688 356.152344 198.097656 355.886719 201.128906 355.535156 C 204.164062 355.1875 207.1875 354.753906 210.195312 354.238281 C 213.207031 353.722656 216.199219 353.121094 219.175781 352.441406 C 222.152344 351.761719 225.105469 351 228.042969 350.152344 C 230.976562 349.308594 233.886719 348.386719 236.769531 347.382812 C 239.652344 346.378906 242.507812 345.296875 245.332031 344.132812 C 248.15625 342.972656 250.945312 341.734375 253.703125 340.421875 C 256.457031 339.105469 259.175781 337.714844 261.855469 336.25 C 264.535156 334.785156 267.171875 333.25 269.765625 331.636719 C 272.359375 330.027344 274.910156 328.347656 277.410156 326.597656 C 279.914062 324.847656 282.363281 323.03125 284.765625 321.144531 C 287.167969 319.257812 289.515625 317.308594 291.8125 315.292969 C 294.105469 313.277344 296.34375 311.203125 298.523438 309.066406 C 300.703125 306.925781 302.824219 304.730469 304.882812 302.476562 C 306.941406 300.21875 308.9375 297.910156 310.867188 295.546875 C 312.800781 293.179688 314.664062 290.765625 316.464844 288.296875 C 318.261719 285.832031 319.992188 283.316406 321.652344 280.753906 C 323.3125 278.1875 324.898438 275.582031 326.417969 272.933594 C 327.933594 270.28125 329.375 267.59375 330.742188 264.863281 C 332.113281 262.132812 333.402344 259.367188 334.621094 256.566406 C 335.835938 253.765625 336.972656 250.933594 338.035156 248.070312 C 339.09375 245.207031 340.074219 242.316406 340.972656 239.398438 C 341.875 236.480469 342.695312 233.539062 343.433594 230.578125 C 344.171875 227.617188 344.828125 224.632812 345.402344 221.636719 C 345.773438 219.667969 346.105469 217.699219 346.402344 215.71875 C 346.695312 213.742188 346.957031 211.757812 347.179688 209.769531 C 347.402344 207.785156 347.589844 205.792969 347.738281 203.796875 C 347.890625 201.804688 348.003906 199.804688 348.078125 197.808594 C 348.15625 195.808594 348.195312 193.808594 348.195312 191.808594 C 348.199219 189.808594 348.164062 187.808594 348.09375 185.8125 C 348.023438 183.8125 347.914062 181.816406 347.769531 179.820312 C 347.625 177.824219 347.445312 175.832031 347.226562 173.84375 C 347.007812 171.855469 346.753906 169.875 346.460938 167.894531 C 346.171875 165.914062 345.84375 163.941406 345.480469 161.976562 C 345.117188 160.007812 344.714844 158.050781 344.277344 156.097656 C 343.84375 154.144531 343.371094 152.203125 342.863281 150.269531 C 342.355469 148.332031 341.8125 146.410156 341.234375 144.496094 C 340.652344 142.578125 340.039062 140.675781 339.390625 138.785156 C 338.742188 136.890625 338.058594 135.011719 337.339844 133.144531 C 336.621094 131.277344 335.871094 129.425781 335.082031 127.585938 C 334.296875 125.746094 333.476562 123.925781 332.621094 122.117188 C 331.769531 120.304688 330.882812 118.515625 329.960938 116.738281 C 329.042969 114.960938 328.089844 113.203125 327.105469 111.460938 C 326.121094 109.722656 325.105469 108 324.058594 106.292969 C 323.007812 104.589844 321.929688 102.90625 320.820312 101.242188 C 319.710938 99.578125 318.570312 97.9375 317.398438 96.316406 C 316.226562 94.691406 315.027344 93.09375 313.796875 91.515625 C 312.566406 89.9375 311.308594 88.382812 310.023438 86.851562 C 308.734375 85.320312 307.421875 83.816406 306.078125 82.332031 C 304.734375 80.847656 303.367188 79.390625 301.96875 77.960938 C 300.574219 76.527344 299.152344 75.121094 297.703125 73.742188 C 296.253906 72.359375 294.78125 71.007812 293.285156 69.683594 C 291.785156 68.355469 290.265625 67.058594 288.71875 65.789062 C 287.171875 64.519531 285.605469 63.28125 284.011719 62.070312 C 282.421875 60.855469 280.808594 59.675781 279.171875 58.523438 C 277.539062 57.371094 275.882812 56.25 274.207031 55.15625 C 272.546875 54.078125 270.871094 53.027344 269.175781 52.011719 C 267.476562 50.992188 265.761719 50.007812 264.03125 49.054688 C 262.296875 48.097656 260.546875 47.175781 258.78125 46.285156 C 257.011719 45.398438 255.230469 44.539062 253.433594 43.714844 C 251.632812 42.890625 249.820312 42.101562 247.992188 41.34375 C 246.164062 40.585938 244.324219 39.863281 242.46875 39.171875 C 240.617188 38.480469 238.75 37.828125 236.871094 37.207031 C 234.992188 36.585938 233.101562 36 231.203125 35.449219 C 229.300781 34.898438 227.394531 34.382812 225.472656 33.902344 C 223.554688 33.421875 221.628906 32.976562 219.691406 32.566406 C 217.757812 32.15625 215.8125 31.78125 213.863281 31.445312 C 211.914062 31.105469 209.960938 30.804688 208 30.539062 C 206.039062 30.273438 204.074219 30.042969 202.105469 29.847656 C 200.136719 29.65625 198.164062 29.5 196.191406 29.378906 C 194.214844 29.257812 192.238281 29.171875 190.261719 29.125 C 188.285156 29.078125 186.304688 29.066406 184.328125 29.089844 C 184.171875 29.09375 184.019531 29.089844 183.863281 29.085938 C 183.707031 29.082031 183.554688 29.070312 183.398438 29.058594 C 183.246094 29.046875 183.09375 29.027344 182.9375 29.007812 C 182.785156 28.988281 182.632812 28.964844 182.480469 28.933594 C 182.328125 28.90625 182.175781 28.875 182.027344 28.839844 C 181.875 28.804688 181.726562 28.765625 181.578125 28.722656 C 181.429688 28.679688 181.28125 28.632812 181.136719 28.582031 C 180.988281 28.535156 180.84375 28.480469 180.699219 28.421875 C 180.554688 28.367188 180.414062 28.304688 180.273438 28.242188 C 180.132812 28.175781 179.992188 28.109375 179.855469 28.039062 C 179.71875 27.96875 179.582031 27.894531 179.449219 27.816406 C 179.316406 27.738281 179.183594 27.65625 179.054688 27.574219 C 178.921875 27.488281 178.796875 27.402344 178.667969 27.3125 C 178.542969 27.21875 178.421875 27.128906 178.300781 27.03125 C 178.179688 26.933594 178.058594 26.835938 177.945312 26.734375 C 177.828125 26.628906 177.714844 26.523438 177.605469 26.417969 C 177.492188 26.308594 177.386719 26.199219 177.28125 26.085938 C 177.175781 25.972656 177.070312 25.855469 176.972656 25.738281 C 176.871094 25.621094 176.773438 25.5 176.679688 25.375 C 176.585938 25.253906 176.496094 25.128906 176.410156 25 C 176.320312 24.875 176.238281 24.746094 176.15625 24.613281 C 176.074219 24.480469 175.996094 24.347656 175.921875 24.210938 C 175.847656 24.078125 175.773438 23.941406 175.707031 23.800781 C 175.636719 23.660156 175.574219 23.519531 175.511719 23.378906 C 175.453125 23.238281 175.394531 23.09375 175.339844 22.949219 C 175.285156 22.804688 175.234375 22.65625 175.1875 22.511719 C 175.140625 22.363281 175.097656 22.214844 175.058594 22.066406 C 175.019531 21.914062 174.984375 21.765625 174.949219 21.613281 C 174.917969 21.460938 174.890625 21.308594 174.863281 21.15625 C 174.839844 21.003906 174.820312 20.851562 174.800781 20.699219 C 174.785156 20.542969 174.773438 20.390625 174.761719 20.234375 C 174.753906 20.082031 174.746094 19.925781 174.746094 19.773438 C 174.742188 19.617188 174.742188 19.460938 174.75 19.308594 C 174.753906 19.152344 174.765625 19 174.777344 18.84375 C 174.789062 18.691406 174.808594 18.535156 174.828125 18.382812 C 174.847656 18.230469 174.875 18.078125 174.902344 17.925781 C 174.929688 17.773438 174.960938 17.621094 174.996094 17.472656 C 175.03125 17.320312 175.070312 17.171875 175.113281 17.023438 C 175.160156 16.875 175.203125 16.726562 175.253906 16.582031 C 175.304688 16.433594 175.359375 16.289062 175.417969 16.144531 C 175.472656 16 175.535156 15.859375 175.597656 15.71875 C 175.664062 15.578125 175.730469 15.4375 175.800781 15.300781 C 175.875 15.164062 175.949219 15.027344 176.027344 14.894531 C 176.101562 14.761719 176.183594 14.628906 176.269531 14.5 C 176.351562 14.371094 176.441406 14.242188 176.53125 14.117188 C 176.621094 13.992188 176.714844 13.867188 176.8125 13.746094 C 176.910156 13.625 177.007812 13.507812 177.109375 13.390625 C 177.210938 13.277344 177.316406 13.164062 177.425781 13.050781 C 177.535156 12.941406 177.644531 12.832031 177.757812 12.726562 C 177.871094 12.621094 177.988281 12.519531 178.105469 12.421875 C 178.222656 12.320312 178.34375 12.222656 178.46875 12.128906 C 178.589844 12.035156 178.714844 11.945312 178.84375 11.859375 C 178.972656 11.769531 179.101562 11.6875 179.230469 11.605469 C 179.363281 11.523438 179.496094 11.445312 179.632812 11.371094 C 179.769531 11.296875 179.90625 11.226562 180.042969 11.15625 C 180.183594 11.089844 180.324219 11.027344 180.46875 10.964844 C 180.609375 10.902344 180.753906 10.847656 180.898438 10.792969 C 181.042969 10.738281 181.1875 10.6875 181.335938 10.640625 C 181.484375 10.59375 181.632812 10.550781 181.78125 10.511719 C 181.933594 10.472656 182.082031 10.4375 182.234375 10.40625 C 182.386719 10.375 182.535156 10.34375 182.691406 10.320312 C 182.84375 10.296875 182.996094 10.273438 183.148438 10.257812 C 183.304688 10.242188 183.457031 10.226562 183.613281 10.21875 C 183.765625 10.207031 183.921875 10.203125 184.074219 10.199219 Z M 184.328125 10.199219 " fill-opacity="1" fill-rule="nonzero"/></g><g clip-path="url(#6be0af3e67)"><path fill="#000000" d="M 225.480469 209.847656 C 242.5625 209.832031 259.640625 209.796875 276.714844 209.878906 C 285.640625 209.921875 291.539062 218.203125 288.710938 226.410156 C 286.945312 231.535156 282.273438 234.742188 276.113281 234.761719 C 259.234375 234.824219 242.359375 234.796875 225.480469 234.804688 L 225.480469 256.6875 C 244.046875 256.710938 262.617188 256.734375 281.1875 256.78125 C 291.585938 256.804688 299.625 262.625 302.191406 271.859375 C 304.835938 281.394531 300.929688 290.398438 291.875 295.929688 L 291.875 318.808594 C 304.082031 317.152344 317.707031 305.476562 322.097656 292.097656 C 328.910156 271.320312 322.453125 254.609375 305.359375 241.457031 C 305.535156 241.085938 305.679688 240.691406 305.898438 240.335938 C 312.796875 228.878906 313.230469 217.089844 306.683594 205.515625 C 299.9375 193.59375 289.214844 187.949219 275.527344 187.945312 C 258.847656 187.941406 242.164062 187.941406 225.480469 187.941406 Z M 225.480469 209.847656 " fill-opacity="1" fill-rule="nonzero"/></g><g clip-path="url(#daf9bfff05)"><g clip-path="url(#b6a3fc8fd1)"><path fill="#000000" d="M 214.507812 187.863281 L 236.457031 187.863281 L 236.457031 209.808594 L 214.507812 209.808594 Z M 214.507812 187.863281 " fill-opacity="1" fill-rule="nonzero"/></g></g><g clip-path="url(#17f61ec1ac)"><g clip-path="url(#eaa5fe6ab8)"><path fill="#000000" d="M 214.507812 234.824219 L 236.457031 234.824219 L 236.457031 256.769531 L 214.507812 256.769531 Z M 214.507812 234.824219 " fill-opacity="1" fill-rule="nonzero"/></g></g></svg>